# Rhino

mtllib eye2.mtl
usemtl diffuse_22_14_7_255
v 5.7618312835693359 29.937477111816406 1.96712327003479
v 5.7618312835693359 32.287307739257813 1.96712327003479
v 5.7618312835693359 29.937477111816406 -1.1714661121368408
v 5.7618312835693359 32.287307739257813 -1.1714661121368408
v 5.7618312835693359 29.937477111816406 -1.1714661121368408
v 5.7618312835693359 32.287307739257813 -1.1714661121368408
v 1.9932522773742676 29.937477111816406 -1.1714661121368408
v 1.9932522773742676 32.287307739257813 -1.1714661121368408
v 1.9932522773742676 29.937477111816406 -1.1714661121368408
v 1.9932522773742676 32.287307739257813 -1.1714661121368408
v 1.9932522773742676 29.937477111816406 1.96712327003479
v 1.9932522773742676 32.287307739257813 1.96712327003479
v 1.9932522773742676 29.937477111816406 1.96712327003479
v 1.9932522773742676 32.287307739257813 1.96712327003479
v 5.7618312835693359 29.937477111816406 1.96712327003479
v 5.7618312835693359 32.287307739257813 1.96712327003479
v 5.7618312835693359 29.937477111816406 1.96712327003479
v 5.7618312835693359 29.937477111816406 -1.1714661121368408
v 1.9932522773742676 29.937477111816406 -1.1714661121368408
v 1.9932522773742676 29.937477111816406 1.96712327003479
v 5.7618312835693359 32.287307739257813 1.96712327003479
v 5.7618312835693359 32.287307739257813 -1.1714661121368408
v 1.9932522773742676 32.287307739257813 -1.1714661121368408
v 1.9932522773742676 32.287307739257813 1.96712327003479
vt 0 0
vt 0 0.63618999719619751
vt 0.22719798982143402 0
vt 0.22719798982143402 0.63618999719619751
vt 0.22719798982143402 0
vt 0.22719798982143402 0.63618999719619751
vt 0.5 0
vt 0.5 0.63618999719619751
vt 0.5 0
vt 0.5 0.63618999719619751
vt 0.72719800472259521 0
vt 0.72719800472259521 0.63618999719619751
vt 0.72719800472259521 0
vt 0.72719800472259521 0.63618999719619751
vt 1 0
vt 1 0.63618999719619751
vt 0.27280202507972717 1
vt 0.27280202507972717 0.63619065284729004
vt 0 0.63619065284729004
vt 0 1
vt 1 0.63619065284729004
vt 1 1
vt 0.72719800472259521 1
vt 0.72719800472259521 0.63619065284729004
vn 1 0 0
vn 1 0 0
vn 1 0 0
vn 1 0 0
vn 0 0 -1
vn 0 0 -1
vn 0 0 -1
vn 0 0 -1
vn -1 0 0
vn -1 0 0
vn -1 0 0
vn -1 0 0
vn 0 0 1
vn 0 0 1
vn 0 0 1
vn 0 0 1
vn 0 -1 0
vn 0 -1 0
vn 0 -1 0
vn 0 -1 0
vn 0 1 0
vn 0 1 0
vn 0 1 0
vn 0 1 0
f 18/18/18 17/17/17 20/20/20 19/19/19
f 24/24/24 21/21/21 22/22/22 23/23/23
f 1/1/1 3/3/3 4/4/4 2/2/2
f 5/5/5 7/7/7 8/8/8 6/6/6
f 9/9/9 11/11/11 12/12/12 10/10/10
f 13/13/13 15/15/15 16/16/16 14/14/14
